<svg width="97" height="57" viewBox="0 0 97 57" fill="none" xmlns="http://www.w3.org/2000/svg">
<path fill-rule="evenodd" clip-rule="evenodd" d="M45.5574 19.1407C43.4654 23.6209 43.1175 28.4511 42.7816 33.5143C45.9442 30.0602 49.0717 27.196 52.6181 24.5994C50.2379 22.884 47.7304 21.0096 45.5574 19.1407Z" fill="#FDC180"/>
<path fill-rule="evenodd" clip-rule="evenodd" d="M50.8083 10.1302C47.5752 11.0052 44.2704 12.1536 40.8893 13.6018C41.6942 14.968 43.5041 17.3392 45.5575 19.1407C46.7838 16.0204 48.57 12.8322 50.8083 10.1302Z" fill="#FDC180"/>
<path fill-rule="evenodd" clip-rule="evenodd" d="M90.3489 12.8341C78.2046 7.82452 65.2174 6.23621 50.8083 10.1302C48.57 12.8322 46.7838 16.0204 45.5575 19.1407V19.1426L45.5555 19.1388L45.5575 19.1407C47.7304 21.0097 50.2379 22.884 52.6182 24.5994C52.5318 24.6604 52.4471 24.7235 52.3624 24.7866V24.7885C52.3817 24.7733 52.4008 24.76 52.4201 24.7465C63.1927 16.7142 75.7767 12.6927 90.3489 12.8341Z" fill="#F7941D"/>
<path fill-rule="evenodd" clip-rule="evenodd" d="M83.8396 9.10453C78.9353 5.29997 72.0919 2.04831 61.008 8.58307e-06C58.3742 1.99846 56.5221 3.80241 54.7198 5.59471C65.7193 4.66415 76.084 4.76168 83.8396 9.10453Z" fill="#0075DF"/>
<path fill-rule="evenodd" clip-rule="evenodd" d="M14.7376 35.4644L14.7376 35.4663C14.729 36.3132 14.7204 37.1601 14.7204 37.9644C13.8485 36.812 7.35672 36.1453 6.95887 39.2347C6.62477 41.8274 11.2425 42.5349 14.1118 42.9745C14.7569 43.0734 15.3138 43.1587 15.706 43.2489C18.4662 43.8831 20.4878 45.6153 21.4053 47.6452C20.637 42.1944 24.1148 36.1415 31.8386 36.1415C37.6569 36.1415 41.6323 39.4797 42.2291 44.6612C42.8096 38.9119 47.0363 36.1415 52.1224 36.1415C57.6021 36.1415 62.084 39.6186 62.084 46.0482V49.0281C62.5597 46.5802 64.7831 44.3947 68.8217 44.2388C71.0077 44.1567 74.2681 44.1356 76.2567 44.2903C76.0298 42.3243 74.3395 40.7842 72.3046 40.7842C71.832 40.7842 71.3787 40.8682 70.9581 41.0195V36.2103C71.3978 36.1646 71.8473 36.1415 72.3046 36.1415C77.3687 36.1415 81.5806 37.7766 82.1904 43.7702C83.0295 38.0638 88.7157 33.65 95.605 33.65C96.0757 33.65 96.541 33.6709 97 33.711V38.2529C96.9813 38.2529 96.9621 38.2525 96.9426 38.252L96.9419 38.252C96.9218 38.2515 96.9014 38.251 96.881 38.251C92.3798 38.251 88.7314 41.3765 88.7314 45.2322C88.7314 49.088 92.3798 52.2134 96.881 52.2134C96.9213 52.2134 96.9616 52.2134 97 52.2121V56.7534C96.541 56.7935 96.0757 56.8147 95.605 56.8147C88.8961 56.8147 83.3281 52.629 82.2662 47.1398V55.8245H76.2836V53.2304C74.6315 55.2153 71.9761 55.9546 69.7478 56.0237C65.1862 56.1701 62.6021 53.7452 62.084 51.0569V55.8245H56.0995V44.7411C56.0995 42.5652 54.3107 40.7842 52.1224 40.7842C49.9345 40.7842 48.1437 42.5652 48.1437 44.7411V55.8245H42.1611V47.8342H27.3064C27.3889 50.9182 30.876 52.2443 33.794 51.7453V56.031C33.1601 56.123 32.5069 56.1705 31.8386 56.1705C26.549 56.1705 23.2508 53.3316 21.9441 49.7914C22.1094 52.6673 20.0556 55.5885 14.8955 56.6121C8.74174 57.833 3.75216 56.0251 0 53.2415C1.26647 52.0416 2.5324 50.8418 3.79642 49.6401C6.74733 52.4545 16.2363 54.2159 15.7503 49.9668C15.6274 48.8854 14.8149 48.2969 13.8003 47.9015C12.5577 47.4175 11.1365 47.0999 9.71266 46.7817C8.29653 46.4652 6.87773 46.148 5.62941 45.6662C-2.09964 42.6776 0.680159 34.055 7.59284 32.9681C9.86753 32.6086 12.4787 32.7083 14.7548 32.9681C14.7548 33.7718 14.7462 34.6182 14.7376 35.4644ZM76.2836 47.4084C74.9502 47.2786 72.7448 47.3016 71.2502 47.3512C65.9399 47.5267 66.6449 53.576 73.0981 52.2576C74.96 51.8775 76.109 50.1786 76.2836 48.8374V47.4084ZM27.3064 44.7202C27.4333 38.9998 36.6531 39.0551 36.6741 44.7202H27.3064Z" fill="#0075DF"/>
</svg>
